<svg xmlns="http://www.w3.org/2000/svg" viewBox="0 0 1440 1480" font-family="ui-sans-serif, system-ui, -apple-system">
  <defs>
    <linearGradient id="bg01" x1="0" y1="0" x2="0" y2="1">
      <stop offset="0" stop-color="#F5F1E8"/>
      <stop offset="1" stop-color="#EDE6D3"/>
    </linearGradient>
  </defs>
  <rect width="1440" height="1480" fill="url(#bg01)"/>

  <!-- TOP NAV -->
  <g transform="translate(32,24)">
    <circle cx="14" cy="14" r="6" fill="#2C2A26"/>
    <g stroke="#2C2A26" stroke-width="1.5" stroke-linecap="round">
      <line x1="14" y1="0" x2="14" y2="4"/>
      <line x1="14" y1="24" x2="14" y2="28"/>
      <line x1="0" y1="14" x2="4" y2="14"/>
      <line x1="24" y1="14" x2="28" y2="14"/>
      <line x1="4.5" y1="4.5" x2="7" y2="7"/>
      <line x1="21" y1="21" x2="23.5" y2="23.5"/>
      <line x1="23.5" y1="4.5" x2="21" y2="7"/>
      <line x1="7" y1="21" x2="4.5" y2="23.5"/>
    </g>
    <text x="40" y="20" font-size="18" font-weight="500" fill="#2C2A26" letter-spacing="-0.5">buscosun</text>

    <!-- center tabs -->
    <g transform="translate(560,-4)">
      <text x="0" y="24" font-size="13" fill="#5C5447">Karte</text>
      <text x="64" y="24" font-size="13" fill="#5C5447">Route</text>
      <rect x="120" y="0" width="60" height="40" rx="20" fill="#2C2A26"/>
      <text x="150" y="25" font-size="13" font-weight="500" fill="#FAF6EA" text-anchor="middle">Event</text>
      <text x="200" y="24" font-size="13" fill="#5C5447">Tagesablauf</text>
    </g>

    <!-- right -->
    <g transform="translate(1100,0)">
      <circle cx="0" cy="14" r="4" fill="#7A9466"/>
      <text x="12" y="18" font-size="12" fill="#5C5447">Daten live</text>
      <g transform="translate(130,4)" stroke="#5C5447" stroke-width="1.6" fill="none" stroke-linecap="round" stroke-linejoin="round">
        <path d="M2 16 C2 9 5 6 10 6 C15 6 18 9 18 16 L20 19 L0 19 Z"/>
        <path d="M7 19 a3 3 0 0 0 6 0"/>
      </g>
      <g transform="translate(180,-6)">
        <circle cx="20" cy="20" r="20" fill="#FFFFFF" stroke="#D9D0B8"/>
        <circle cx="20" cy="20" r="7" fill="#7A9466"/>
        <text x="20" y="24" font-size="9" fill="#FFFFFF" text-anchor="middle" font-weight="500">JS</text>
      </g>
    </g>
  </g>

  <!-- INTRO HEADER -->
  <g transform="translate(80,96)">
    <text x="0" y="12" font-size="11" font-weight="500" fill="#A89A7A" letter-spacing="3">EVENT-PLANUNG</text>
    <text x="0" y="58" font-size="38" font-weight="300" fill="#2C2A26" letter-spacing="-0.9">Welcher Tag passt am besten?</text>
    <text x="0" y="90" font-size="14" fill="#5C5447">Sag uns Anlass, Ort und wann du Zeit hast — wir vergleichen die nächsten 7 Tage und nennen dir den besten.</text>
    <line x1="0" y1="116" x2="1280" y2="116" stroke="#E0D6BE" stroke-width="0.5"/>
  </g>

  <!-- SUMMARY TILES -->
  <g transform="translate(80,244)">
    <!-- ANLASS (filled white) -->
    <g>
      <rect width="306" height="96" rx="16" fill="#FFFFFF" stroke="#E0D6BE" stroke-width="0.5"/>
      <text x="22" y="32" font-size="10" font-weight="500" fill="#A89A7A" letter-spacing="2">ANLASS</text>
      <text x="22" y="58" font-size="18" font-weight="500" fill="#2C2A26">Hochzeit</text>
      <text x="22" y="80" font-size="10" fill="#8B7355">trocken, warm, festlich</text>
    </g>
    <!-- ORT (empty) -->
    <g transform="translate(322,0)">
      <rect width="306" height="96" rx="16" fill="#FAF6EA" stroke="#E0D6BE" stroke-width="0.5"/>
      <text x="22" y="32" font-size="10" font-weight="500" fill="#A89A7A" letter-spacing="2">ORT</text>
      <text x="22" y="58" font-size="18" font-weight="500" fill="#5C5447">–</text>
      <text x="22" y="80" font-size="10" fill="#8B7355">Nicht gewählt</text>
    </g>
    <!-- ZEITFENSTER (empty) -->
    <g transform="translate(644,0)">
      <rect width="306" height="96" rx="16" fill="#FAF6EA" stroke="#E0D6BE" stroke-width="0.5"/>
      <text x="22" y="32" font-size="10" font-weight="500" fill="#A89A7A" letter-spacing="2">ZEITFENSTER</text>
      <text x="22" y="58" font-size="18" font-weight="500" fill="#5C5447">–</text>
      <text x="22" y="80" font-size="10" fill="#8B7355">Zeitraum</text>
    </g>
    <!-- STATUS (empty) -->
    <g transform="translate(966,0)">
      <rect width="306" height="96" rx="16" fill="#FAF6EA" stroke="#E0D6BE" stroke-width="0.5"/>
      <text x="22" y="32" font-size="10" font-weight="500" fill="#A89A7A" letter-spacing="2">STATUS</text>
      <text x="22" y="58" font-size="18" font-weight="500" fill="#5C5447">–</text>
      <text x="22" y="80" font-size="10" fill="#8B7355">Ort fehlt</text>
    </g>
  </g>

  <!-- SECTION 1 · ANLASS -->
  <g transform="translate(80,392)">
    <text x="0" y="12" font-size="11" font-weight="500" fill="#A89A7A" letter-spacing="3">1 · ANLASS</text>
  </g>

  <!-- ANLASS GRID: 4 per row, 258 wide, 112 high, gap 16 -->
  <g transform="translate(80,420)">
    <!-- Row 1 -->
    <!-- Hochzeit SELECTED -->
    <g transform="translate(0,0)">
      <rect width="258" height="112" rx="16" fill="#2C2A26"/>
      <rect x="20" y="20" width="46" height="46" rx="10" fill="#3A3833"/>
      <g transform="translate(31,31)" stroke="#FFFFFF" stroke-width="1.7" fill="none" stroke-linecap="round" stroke-linejoin="round">
        <circle cx="8" cy="14" r="6"/>
        <circle cx="16" cy="14" r="6"/>
        <path d="M9 4 l3 -3 l3 3 l-3 3 z"/>
      </g>
      <!-- check badge -->
      <circle cx="236" cy="20" r="11" fill="#7A9466"/>
      <path d="M231 20 l3.5 3.5 l6 -7" stroke="#FFFFFF" stroke-width="1.8" fill="none" stroke-linecap="round" stroke-linejoin="round"/>
      <text x="20" y="88" font-size="15" font-weight="500" fill="#FFFFFF">Hochzeit</text>
      <text x="20" y="106" font-size="11" fill="#C9BEA6">trocken, warm, festlich</text>
    </g>
    <!-- Wandern -->
    <g transform="translate(274,0)">
      <rect width="258" height="112" rx="16" fill="#FAF6EA" stroke="#E0D6BE" stroke-width="0.5"/>
      <rect x="20" y="20" width="46" height="46" rx="10" fill="#FFFFFF" stroke="#E0D6BE" stroke-width="0.5"/>
      <g transform="translate(31,31)" stroke="#8B7355" stroke-width="1.7" fill="none" stroke-linecap="round" stroke-linejoin="round">
        <circle cx="13" cy="4" r="2.4"/>
        <path d="M13 7 l-2 6 l3 2 l1 5"/>
        <path d="M11 13 l-4 3"/>
        <path d="M2 20 l5 -5 l4 4 l6 -8 l4 9"/>
      </g>
      <text x="20" y="86" font-size="15" font-weight="500" fill="#2C2A26">Wandern</text>
      <text x="20" y="104" font-size="11" fill="#8B7355">trocken, mild, gute Sicht</text>
    </g>
    <!-- Radtour -->
    <g transform="translate(548,0)">
      <rect width="258" height="112" rx="16" fill="#FAF6EA" stroke="#E0D6BE" stroke-width="0.5"/>
      <rect x="20" y="20" width="46" height="46" rx="10" fill="#FFFFFF" stroke="#E0D6BE" stroke-width="0.5"/>
      <g transform="translate(31,33)" stroke="#8B7355" stroke-width="1.7" fill="none" stroke-linecap="round" stroke-linejoin="round">
        <circle cx="4" cy="14" r="4"/>
        <circle cx="18" cy="14" r="4"/>
        <path d="M4 14 l5 -7 l5 7 M9 7 l3 0 M11 14 l-2 -5"/>
      </g>
      <text x="20" y="86" font-size="15" font-weight="500" fill="#2C2A26">Radtour</text>
      <text x="20" y="104" font-size="11" fill="#8B7355">wenig Wind &amp; Regen</text>
    </g>
    <!-- Grillen -->
    <g transform="translate(822,0)">
      <rect width="258" height="112" rx="16" fill="#FAF6EA" stroke="#E0D6BE" stroke-width="0.5"/>
      <rect x="20" y="20" width="46" height="46" rx="10" fill="#FFFFFF" stroke="#E0D6BE" stroke-width="0.5"/>
      <g transform="translate(33,30)" stroke="#8B7355" stroke-width="1.7" fill="none" stroke-linecap="round" stroke-linejoin="round">
        <path d="M6 22 C0 16 4 12 4 8 C7 11 8 6 6 2 C12 4 14 10 12 14 C13 11 15 11 15 8 C18 12 18 18 12 22 Z"/>
      </g>
      <text x="20" y="86" font-size="15" font-weight="500" fill="#2C2A26">Grillen</text>
      <text x="20" y="104" font-size="11" fill="#8B7355">warm, trocken, windstill</text>
    </g>

    <!-- Row 2 -->
    <!-- Fotografieren -->
    <g transform="translate(0,128)">
      <rect width="258" height="112" rx="16" fill="#FAF6EA" stroke="#E0D6BE" stroke-width="0.5"/>
      <rect x="20" y="20" width="46" height="46" rx="10" fill="#FFFFFF" stroke="#E0D6BE" stroke-width="0.5"/>
      <g transform="translate(29,32)" stroke="#8B7355" stroke-width="1.7" fill="none" stroke-linecap="round" stroke-linejoin="round">
        <path d="M0 6 l5 0 l2 -3 l8 0 l2 3 l5 0 a2 2 0 0 1 2 2 l0 10 a2 2 0 0 1 -2 2 l-20 0 a2 2 0 0 1 -2 -2 l0 -10 a2 2 0 0 1 2 -2 Z"/>
        <circle cx="11" cy="13" r="4.5"/>
      </g>
      <text x="20" y="86" font-size="15" font-weight="500" fill="#2C2A26">Fotografieren</text>
      <text x="20" y="104" font-size="11" fill="#8B7355">Lichtstimmung, weiches Wolkenlicht</text>
    </g>
    <!-- Picknick -->
    <g transform="translate(274,128)">
      <rect width="258" height="112" rx="16" fill="#FAF6EA" stroke="#E0D6BE" stroke-width="0.5"/>
      <rect x="20" y="20" width="46" height="46" rx="10" fill="#FFFFFF" stroke="#E0D6BE" stroke-width="0.5"/>
      <g transform="translate(31,31)" stroke="#8B7355" stroke-width="1.7" fill="none" stroke-linecap="round" stroke-linejoin="round">
        <circle cx="12" cy="12" r="5"/>
        <line x1="12" y1="0" x2="12" y2="3"/>
        <line x1="12" y1="21" x2="12" y2="24"/>
        <line x1="0" y1="12" x2="3" y2="12"/>
        <line x1="21" y1="12" x2="24" y2="12"/>
        <line x1="4" y1="4" x2="6" y2="6"/>
        <line x1="18" y1="18" x2="20" y2="20"/>
        <line x1="20" y1="4" x2="18" y2="6"/>
        <line x1="6" y1="18" x2="4" y2="20"/>
      </g>
      <text x="20" y="86" font-size="15" font-weight="500" fill="#2C2A26">Picknick</text>
      <text x="20" y="104" font-size="11" fill="#8B7355">mild, trocken, sonnig</text>
    </g>
    <!-- Laufen -->
    <g transform="translate(548,128)">
      <rect width="258" height="112" rx="16" fill="#FAF6EA" stroke="#E0D6BE" stroke-width="0.5"/>
      <rect x="20" y="20" width="46" height="46" rx="10" fill="#FFFFFF" stroke="#E0D6BE" stroke-width="0.5"/>
      <g transform="translate(33,30)" stroke="#8B7355" stroke-width="1.7" fill="none" stroke-linecap="round" stroke-linejoin="round">
        <circle cx="13" cy="3" r="2.4"/>
        <path d="M13 6 l-3 5 l3 3 l1 6"/>
        <path d="M10 11 l-5 2 M13 14 l5 1"/>
        <path d="M8 22 l2 -8"/>
      </g>
      <text x="20" y="86" font-size="15" font-weight="500" fill="#2C2A26">Laufen</text>
      <text x="20" y="104" font-size="11" fill="#8B7355">kühl, trocken</text>
    </g>
    <!-- Baden -->
    <g transform="translate(822,128)">
      <rect width="258" height="112" rx="16" fill="#FAF6EA" stroke="#E0D6BE" stroke-width="0.5"/>
      <rect x="20" y="20" width="46" height="46" rx="10" fill="#FFFFFF" stroke="#E0D6BE" stroke-width="0.5"/>
      <g transform="translate(31,30)" stroke="#8B7355" stroke-width="1.7" fill="none" stroke-linecap="round" stroke-linejoin="round">
        <circle cx="9" cy="5" r="2.4"/>
        <path d="M0 16 c3 -3 5 -3 8 0 c3 3 5 3 8 0 c2 -2 3.5 -2.5 5 -1.5"/>
        <path d="M0 21 c3 -3 5 -3 8 0 c3 3 5 3 8 0 c2 -2 3.5 -2.5 5 -1.5"/>
        <path d="M6 11 l8 -2"/>
      </g>
      <text x="20" y="86" font-size="15" font-weight="500" fill="#2C2A26">Baden</text>
      <text x="20" y="104" font-size="11" fill="#8B7355">heiß &amp; sonnig</text>
    </g>

    <!-- Row 3 -->
    <!-- Sterne schauen -->
    <g transform="translate(0,256)">
      <rect width="258" height="112" rx="16" fill="#FAF6EA" stroke="#E0D6BE" stroke-width="0.5"/>
      <rect x="20" y="20" width="46" height="46" rx="10" fill="#FFFFFF" stroke="#E0D6BE" stroke-width="0.5"/>
      <g transform="translate(30,30)" stroke="#8B7355" stroke-width="1.7" fill="none" stroke-linecap="round" stroke-linejoin="round">
        <path d="M2 20 l14 -12 l3 3 l-14 12 z"/>
        <path d="M16 8 l4 -2"/>
        <path d="M18 0 l1 3 l3 1 l-3 1 l-1 3 l-1 -3 l-3 -1 l3 -1 z"/>
      </g>
      <text x="20" y="86" font-size="15" font-weight="500" fill="#2C2A26">Sterne schauen</text>
      <text x="20" y="104" font-size="11" fill="#8B7355">klar, wolkenlos, nachts</text>
    </g>
    <!-- Eigener Anlass (dashed) -->
    <g transform="translate(274,256)">
      <rect width="258" height="112" rx="16" fill="#FAF6EA" stroke="#C4B896" stroke-width="1.4" stroke-dasharray="6 5"/>
      <rect x="20" y="20" width="46" height="46" rx="10" fill="#FFFFFF" stroke="#C4B896" stroke-width="0.8" stroke-dasharray="4 3"/>
      <g transform="translate(31,31)" stroke="#8B7355" stroke-width="1.7" fill="none" stroke-linecap="round">
        <line x1="12" y1="4" x2="12" y2="20"/>
        <line x1="4" y1="12" x2="20" y2="12"/>
      </g>
      <text x="20" y="86" font-size="15" font-weight="500" fill="#2C2A26">Eigener Anlass</text>
      <text x="20" y="104" font-size="11" fill="#8B7355">frei beschreiben</text>
    </g>
  </g>

  <!-- PRESET-FAKTOREN STATUS BAND -->
  <g transform="translate(80,820)">
    <rect width="1280" height="64" rx="14" fill="#F0F4EA" stroke="#E0D6BE" stroke-width="0.5"/>
    <circle cx="30" cy="32" r="10" fill="#7A9466"/>
    <path d="M25 32 l3.5 3.5 l6 -7" stroke="#FFFFFF" stroke-width="1.8" fill="none" stroke-linecap="round" stroke-linejoin="round"/>
    <text x="52" y="37" font-size="13" fill="#5F7951">Für Hochzeit automatisch bewertet — keine Einstellung nötig:</text>

    <!-- chips -->
    <g transform="translate(490,16)">
      <!-- Trockenheit TOP -->
      <rect width="160" height="32" rx="14" fill="#FFFFFF" stroke="#2C2A26" stroke-width="1.2"/>
      <text x="18" y="21" font-size="12" font-weight="500" fill="#2C2A26">Trockenheit</text>
      <rect x="96" y="6" width="56" height="20" rx="10" fill="#7A9466"/>
      <text x="124" y="20" font-size="9" font-weight="500" fill="#FFFFFF" text-anchor="middle">wichtigste</text>
    </g>
    <g transform="translate(666,16)">
      <rect width="108" height="32" rx="14" fill="#FFFFFF" stroke="#E0D6BE" stroke-width="0.8"/>
      <text x="20" y="21" font-size="12" fill="#5C5447">Temperatur</text>
    </g>
    <g transform="translate(790,16)">
      <rect width="96" height="32" rx="14" fill="#FFFFFF" stroke="#E0D6BE" stroke-width="0.8"/>
      <text x="18" y="21" font-size="12" fill="#5C5447">Windruhe</text>
    </g>
    <g transform="translate(902,16)">
      <rect width="118" height="32" rx="14" fill="#FFFFFF" stroke="#E0D6BE" stroke-width="0.8"/>
      <text x="18" y="21" font-size="12" fill="#5C5447">Sonne / Sicht</text>
    </g>
  </g>

  <!-- TUNING PANEL -->
  <g transform="translate(80,916)">
    <rect width="1280" height="392" rx="18" fill="#FFFFFF" stroke="#E0D6BE" stroke-width="0.5"/>

    <!-- summary row -->
    <g transform="translate(28,28)">
      <g transform="translate(0,2)" stroke="#5C5447" stroke-width="1.7" fill="none" stroke-linecap="round">
        <line x1="0" y1="6" x2="24" y2="6"/>
        <line x1="0" y1="16" x2="24" y2="16"/>
        <circle cx="7" cy="6" r="3.2" fill="#FFFFFF"/>
        <circle cx="17" cy="16" r="3.2" fill="#FFFFFF"/>
      </g>
      <text x="38" y="18" font-size="15" font-weight="500" fill="#2C2A26">Feinjustierung — an mein Empfinden anpassen</text>
      <rect x="430" y="0" width="84" height="24" rx="12" fill="#F0F4EA" stroke="#E0D6BE" stroke-width="0.5"/>
      <text x="472" y="16" font-size="11" font-weight="500" fill="#5F7951" text-anchor="middle">angepasst</text>
      <!-- chevron -->
      <path d="M1208 4 l8 8 l-8 8" stroke="#8B7355" stroke-width="1.7" fill="none" stroke-linecap="round" stroke-linejoin="round" transform="rotate(90 1212 12)"/>
    </g>

    <line x1="28" y1="74" x2="1252" y2="74" stroke="#E0D6BE" stroke-width="0.5"/>

    <!-- comfort temperature -->
    <g transform="translate(28,104)">
      <text x="0" y="20" font-size="10" font-weight="500" fill="#A89A7A" letter-spacing="2">WOHLFÜHL-TEMPERATUR</text>
      <g transform="translate(0,36)">
        <rect width="64" height="40" rx="10" fill="#FAF6EA" stroke="#E0D6BE" stroke-width="0.5"/>
        <text x="32" y="26" font-size="16" font-weight="500" fill="#2C2A26" text-anchor="middle">18</text>
        <text x="80" y="26" font-size="16" fill="#8B7355" text-anchor="middle">–</text>
        <rect x="96" y="0" width="64" height="40" rx="10" fill="#FAF6EA" stroke="#E0D6BE" stroke-width="0.5"/>
        <text x="128" y="26" font-size="16" font-weight="500" fill="#2C2A26" text-anchor="middle">26</text>
        <text x="174" y="26" font-size="14" fill="#5C5447">°C</text>
      </g>
    </g>

    <!-- weighting sliders -->
    <g transform="translate(28,196)">
      <!-- Trockenheit entscheidend ~85% -->
      <g transform="translate(0,0)">
        <text x="0" y="14" font-size="13" fill="#5C5447">Trockenheit</text>
        <rect x="280" y="8" width="760" height="6" rx="3" fill="#EDE6D3"/>
        <rect x="280" y="8" width="646" height="6" rx="3" fill="#2C2A26"/>
        <circle cx="926" cy="11" r="8" fill="#2C2A26"/>
        <text x="1224" y="15" font-size="12" font-weight="500" fill="#C97B47" text-anchor="end">entscheidend</text>
      </g>
      <!-- Temperatur wichtig ~55% -->
      <g transform="translate(0,42)">
        <text x="0" y="14" font-size="13" fill="#5C5447">Temperatur</text>
        <rect x="280" y="8" width="760" height="6" rx="3" fill="#EDE6D3"/>
        <rect x="280" y="8" width="418" height="6" rx="3" fill="#2C2A26"/>
        <circle cx="698" cy="11" r="8" fill="#2C2A26"/>
        <text x="1224" y="15" font-size="12" font-weight="500" fill="#C97B47" text-anchor="end">wichtig</text>
      </g>
      <!-- Windruhe wichtig ~50% -->
      <g transform="translate(0,84)">
        <text x="0" y="14" font-size="13" fill="#5C5447">Windruhe</text>
        <rect x="280" y="8" width="760" height="6" rx="3" fill="#EDE6D3"/>
        <rect x="280" y="8" width="380" height="6" rx="3" fill="#2C2A26"/>
        <circle cx="660" cy="11" r="8" fill="#2C2A26"/>
        <text x="1224" y="15" font-size="12" font-weight="500" fill="#C97B47" text-anchor="end">wichtig</text>
      </g>
      <!-- Sonne / Sicht wenig ~20% -->
      <g transform="translate(0,126)">
        <text x="0" y="14" font-size="13" fill="#5C5447">Sonne / Sicht</text>
        <rect x="280" y="8" width="760" height="6" rx="3" fill="#EDE6D3"/>
        <rect x="280" y="8" width="152" height="6" rx="3" fill="#2C2A26"/>
        <circle cx="432" cy="11" r="8" fill="#2C2A26"/>
        <text x="1224" y="15" font-size="12" font-weight="500" fill="#A89A7A" text-anchor="end">wenig</text>
      </g>
    </g>

    <!-- reset -->
    <g transform="translate(28,360)">
      <rect width="220" height="32" rx="16" fill="#FFFFFF" stroke="#D9D0B8" stroke-width="0.8"/>
      <g transform="translate(20,8)" stroke="#8B7355" stroke-width="1.5" fill="none" stroke-linecap="round">
        <path d="M2 8 a6 6 0 1 1 1.5 4"/>
        <path d="M2 3 l0 5 l5 0"/>
      </g>
      <text x="42" y="21" font-size="12" fill="#5C5447">Auf Preset zurücksetzen</text>
    </g>
  </g>

  <!-- FOOTER -->
  <g transform="translate(80,1424)">
    <line x1="0" y1="0" x2="1280" y2="0" stroke="#E0D6BE" stroke-width="0.5"/>
    <text x="0" y="26" font-size="10" font-weight="500" fill="#A89A7A" letter-spacing="2">EV-01 · EINGABE — ANLASS &amp; FEINJUSTIERUNG</text>
    <text x="1280" y="26" font-size="10" font-weight="500" fill="#A89A7A" letter-spacing="2" text-anchor="end">10 ANLÄSSE · PRESET-FAKTOREN · WOHLFÜHL-TEMPERATUR · 4 GEWICHTE</text>
  </g>
</svg>
