<svg xmlns="http://www.w3.org/2000/svg" viewBox="0 0 390 1340" font-family="ui-sans-serif, system-ui, -apple-system, 'Segoe UI', Roboto, sans-serif">
<defs>
  <linearGradient id="bgSand" x1="0" y1="0" x2="0" y2="1"><stop offset="0" stop-color="#FAF6EA"/><stop offset="1" stop-color="#F5F1E8"/></linearGradient>
  <linearGradient id="heroGrad" x1="0" y1="0" x2="0" y2="1"><stop offset="0" stop-color="#FBFAF3"/><stop offset="1" stop-color="#F2EEDE"/></linearGradient>
  <linearGradient id="stripeScale" x1="0" y1="0" x2="1" y2="0"><stop offset="0" stop-color="#1a3a5c"/><stop offset="0.25" stop-color="#3a6fa8"/><stop offset="0.5" stop-color="#ede6d3"/><stop offset="0.75" stop-color="#c97b47"/><stop offset="1" stop-color="#9e2b25"/></linearGradient>
  <filter id="cardShadow" x="-10%" y="-10%" width="120%" height="130%"><feGaussianBlur in="SourceAlpha" stdDeviation="4"/><feOffset dx="0" dy="2"/><feComponentTransfer><feFuncA type="linear" slope="0.10"/></feComponentTransfer><feMerge><feMergeNode/><feMergeNode in="SourceGraphic"/></feMerge></filter>
  <filter id="strongShadow" x="-20%" y="-20%" width="140%" height="160%"><feGaussianBlur in="SourceAlpha" stdDeviation="8"/><feOffset dx="0" dy="6"/><feComponentTransfer><feFuncA type="linear" slope="0.18"/></feComponentTransfer><feMerge><feMergeNode/><feMergeNode in="SourceGraphic"/></feMerge></filter>
  <pattern id="grain" width="120" height="120" patternUnits="userSpaceOnUse"><rect width="120" height="120" fill="transparent"/><circle cx="20" cy="40" r="0.7" fill="#C4B896" opacity="0.18"/><circle cx="80" cy="20" r="0.5" fill="#C4B896" opacity="0.14"/><circle cx="55" cy="95" r="0.6" fill="#C4B896" opacity="0.16"/></pattern>
  <pattern id="mapTexture" width="44" height="44" patternUnits="userSpaceOnUse"><rect width="44" height="44" fill="#EDE6D3"/><path d="M 0 22 Q 11 20 22 22 Q 33 24 44 22" fill="none" stroke="#C4B896" stroke-width="0.5" opacity="0.5"/><path d="M 22 0 Q 20 11 22 22 Q 24 33 22 44" fill="none" stroke="#C4B896" stroke-width="0.5" opacity="0.35"/></pattern>
  <pattern id="gapHatch" width="6" height="6" patternUnits="userSpaceOnUse" patternTransform="rotate(45)"><rect width="6" height="6" fill="#EDE6D3"/><line x1="0" y1="0" x2="0" y2="6" stroke="#C4B896" stroke-width="1.5"/></pattern>
</defs>
<rect width="390" height="1340" fill="url(#bgSand)"/><rect width="390" height="1340" fill="url(#grain)"/>
<g><rect width="390" height="44" fill="#FAF6EA"/><text x="22" y="28" font-size="14" font-weight="700" fill="#2C2A26">9:41</text><g transform="translate(330,14)" fill="#2C2A26"><rect x="0" y="2" width="3" height="8" rx="1"/><rect x="5" y="0" width="3" height="10" rx="1"/><rect x="10" y="-2" width="3" height="12" rx="1"/><rect x="22" y="0" width="20" height="10" rx="2" fill="none" stroke="#2C2A26"/><rect x="24" y="2" width="14" height="6" rx="1" fill="#7A9466"/></g></g><g transform="translate(0,44)"><rect width="390" height="56" fill="#FAF6EA"/><line x1="0" y1="56" x2="390" y2="56" stroke="#E0D6BE"/><text x="195" y="32" font-size="14" font-weight="600" fill="#2C2A26" text-anchor="middle">Wetterhistorie</text><text x="195" y="46" font-size="10" fill="#8B7355" text-anchor="middle">Klima-Rückblick</text></g>
<g transform="translate(16,118)"><text font-size="22" font-weight="700" fill="#2C2A26">Wie hat sich das Wetter</text><text y="28" font-size="22" font-weight="700" fill="#2C2A26">bei dir verändert?</text></g>
<g transform="translate(16,182)" filter="url(#cardShadow)"><rect width="358" height="52" rx="14" fill="#FAF6EA" stroke="#E0D6BE"/><g transform="translate(20,20)" stroke="#8B7355" stroke-width="2" fill="none"><circle cx="7" cy="7" r="7"/><line x1="12" y1="12" x2="17" y2="17" stroke-linecap="round"/></g><text x="50" y="32" font-size="14" fill="#8B7355">Ort oder PLZ suchen</text></g>
<g transform="translate(16,246)"><rect width="358" height="44" rx="14" fill="#F1F4EC" stroke="#7A9466"/><text x="179" y="28" font-size="13" font-weight="600" fill="#5C7A4A" text-anchor="middle">⌖ Meinen Standort verwenden</text></g>
<g transform="translate(16,310)"><text x="0" y="0" font-size="11" letter-spacing="0.22em" font-weight="600" fill="#7A9466">ODER STARTE MIT EINER FRAGE</text></g>
<g transform="translate(16,326)" filter="url(#cardShadow)"><rect width="358" height="74" rx="14" fill="#FAF6EA" stroke="#E0D6BE"/><rect x="0" y="0" width="6" height="74" rx="3" fill="#C97B47"/><text x="24" y="34" font-size="15" font-weight="700" fill="#2C2A26">Wie warm war der letzte Sommer?</text><text x="24" y="56" font-size="10" font-weight="600" letter-spacing="0.08em" fill="#C97B47">TEMPERATUR · ANOMALIE</text><text x="334" y="44" font-size="18" fill="#8B7355">→</text></g>
<g transform="translate(16,410)" filter="url(#cardShadow)"><rect width="358" height="74" rx="14" fill="#FAF6EA" stroke="#E0D6BE"/><rect x="0" y="0" width="6" height="74" rx="3" fill="#3A6FA8"/><text x="24" y="34" font-size="15" font-weight="700" fill="#2C2A26">Wann war der letzte Frost?</text><text x="24" y="56" font-size="10" font-weight="600" letter-spacing="0.08em" fill="#3A6FA8">FROSTTAGE · GÄRTNERN</text><text x="334" y="44" font-size="18" fill="#8B7355">→</text></g>
<g transform="translate(16,494)" filter="url(#cardShadow)"><rect width="358" height="74" rx="14" fill="#FAF6EA" stroke="#E0D6BE"/><rect x="0" y="0" width="6" height="74" rx="3" fill="#7A9466"/><text x="24" y="34" font-size="15" font-weight="700" fill="#2C2A26">Wie trocken ist mein Datum?</text><text x="24" y="56" font-size="10" font-weight="600" letter-spacing="0.08em" fill="#7A9466">NIEDERSCHLAG · DATUM</text><text x="334" y="44" font-size="18" fill="#8B7355">→</text></g>
<g transform="translate(16,578)" filter="url(#cardShadow)"><rect width="358" height="74" rx="14" fill="#FAF6EA" stroke="#E0D6BE"/><rect x="0" y="0" width="6" height="74" rx="3" fill="#D4A373"/><text x="24" y="34" font-size="15" font-weight="700" fill="#2C2A26">Wie viele Hitzetage inzwischen?</text><text x="24" y="56" font-size="10" font-weight="600" letter-spacing="0.08em" fill="#D4A373">KENNTAGE · TREND</text><text x="334" y="44" font-size="18" fill="#8B7355">→</text></g>
<g transform="translate(16,662)" filter="url(#cardShadow)"><rect width="358" height="74" rx="14" fill="#FAF6EA" stroke="#E0D6BE"/><rect x="0" y="0" width="6" height="74" rx="3" fill="#9E2B25"/><text x="24" y="34" font-size="15" font-weight="700" fill="#2C2A26">Klimastreifen für meinen Ort</text><text x="24" y="56" font-size="10" font-weight="600" letter-spacing="0.08em" fill="#9E2B25">WARMING STRIPES</text><text x="334" y="44" font-size="18" fill="#8B7355">→</text></g>
<g transform="translate(16,746)"><text x="0" y="0" font-size="11" letter-spacing="0.22em" font-weight="600" fill="#7A9466">BEISPIEL: DILLENBURG</text></g>
<g transform="translate(16,762)" filter="url(#cardShadow)"><rect width="358" height="90" rx="14" fill="#FAF6EA" stroke="#E0D6BE"/>
<g transform="translate(28,780)"><rect x="0.00" y="0" width="5.74" height="44" fill="#a0bbcf"/><rect x="5.14" y="0" width="5.74" height="44" fill="#5b88b5"/><rect x="10.28" y="0" width="5.74" height="44" fill="#7ca1c2"/><rect x="15.42" y="0" width="5.74" height="44" fill="#789ec1"/><rect x="20.55" y="0" width="5.74" height="44" fill="#c2ced0"/><rect x="25.69" y="0" width="5.74" height="44" fill="#bdcbd0"/><rect x="30.83" y="0" width="5.74" height="44" fill="#e3e0d2"/><rect x="35.97" y="0" width="5.74" height="44" fill="#779ec1"/><rect x="41.11" y="0" width="5.74" height="44" fill="#a5becf"/><rect x="46.25" y="0" width="5.74" height="44" fill="#779ec1"/><rect x="51.38" y="0" width="5.74" height="44" fill="#91b1cb"/><rect x="56.52" y="0" width="5.74" height="44" fill="#bfccd0"/><rect x="61.66" y="0" width="5.74" height="44" fill="#81a5c5"/><rect x="66.80" y="0" width="5.74" height="44" fill="#9ab8cf"/><rect x="71.94" y="0" width="5.74" height="44" fill="#e1dfd2"/><rect x="77.08" y="0" width="5.74" height="44" fill="#d6d9d1"/><rect x="82.22" y="0" width="5.74" height="44" fill="#aac1cf"/><rect x="87.35" y="0" width="5.74" height="44" fill="#e7e2d2"/><rect x="92.49" y="0" width="5.74" height="44" fill="#e8d4b7"/><rect x="97.63" y="0" width="5.74" height="44" fill="#97b6ce"/><rect x="102.77" y="0" width="5.74" height="44" fill="#e6d0af"/><rect x="107.91" y="0" width="5.74" height="44" fill="#e8d6b9"/><rect x="113.05" y="0" width="5.74" height="44" fill="#d8dad2"/><rect x="118.18" y="0" width="5.74" height="44" fill="#c0cdd0"/><rect x="123.32" y="0" width="5.74" height="44" fill="#e0b98b"/><rect x="128.46" y="0" width="5.74" height="44" fill="#e4e1d2"/><rect x="133.60" y="0" width="5.74" height="44" fill="#c4cfd1"/><rect x="138.74" y="0" width="5.74" height="44" fill="#c9d2d1"/><rect x="143.88" y="0" width="5.74" height="44" fill="#e0b98a"/><rect x="149.02" y="0" width="5.74" height="44" fill="#e4caa5"/><rect x="154.15" y="0" width="5.74" height="44" fill="#dfb788"/><rect x="159.29" y="0" width="5.74" height="44" fill="#e0bb8d"/><rect x="164.43" y="0" width="5.74" height="44" fill="#e4c8a3"/><rect x="169.57" y="0" width="5.74" height="44" fill="#d8a473"/><rect x="174.71" y="0" width="5.74" height="44" fill="#e6d1b0"/><rect x="179.85" y="0" width="5.74" height="44" fill="#e1bf94"/><rect x="184.98" y="0" width="5.74" height="44" fill="#d9a878"/><rect x="190.12" y="0" width="5.74" height="44" fill="#deb687"/><rect x="195.26" y="0" width="5.74" height="44" fill="#d7a170"/><rect x="200.40" y="0" width="5.74" height="44" fill="#deb485"/><rect x="205.54" y="0" width="5.74" height="44" fill="#d9a878"/><rect x="210.68" y="0" width="5.74" height="44" fill="#e9dac0"/><rect x="215.82" y="0" width="5.74" height="44" fill="#e4c9a4"/><rect x="220.95" y="0" width="5.74" height="44" fill="#e2c298"/><rect x="226.09" y="0" width="5.74" height="44" fill="#e6d1b0"/><rect x="231.23" y="0" width="5.74" height="44" fill="#e2c298"/><rect x="236.37" y="0" width="5.74" height="44" fill="#e4caa5"/><rect x="241.51" y="0" width="5.74" height="44" fill="#e0b98a"/><rect x="246.65" y="0" width="5.74" height="44" fill="#d59c6a"/><rect x="251.78" y="0" width="5.74" height="44" fill="#dbad7e"/><rect x="256.92" y="0" width="5.74" height="44" fill="#daab7b"/><rect x="262.06" y="0" width="5.74" height="44" fill="#deb586"/><rect x="267.20" y="0" width="5.74" height="44" fill="#dcae7e"/><rect x="272.34" y="0" width="5.74" height="44" fill="#c87946"/><rect x="277.48" y="0" width="5.74" height="44" fill="#cf8d5b"/><rect x="282.62" y="0" width="5.74" height="44" fill="#d08e5b"/><rect x="287.75" y="0" width="5.74" height="44" fill="#dbac7c"/><rect x="292.89" y="0" width="5.74" height="44" fill="#cb804c"/><rect x="298.03" y="0" width="5.74" height="44" fill="#daa978"/><rect x="303.17" y="0" width="5.74" height="44" fill="#d39664"/><rect x="308.31" y="0" width="5.74" height="44" fill="#bc643d"/><rect x="313.45" y="0" width="5.74" height="44" fill="#ca7d49"/><rect x="318.58" y="0" width="5.74" height="44" fill="#cb814e"/><rect x="323.72" y="0" width="5.74" height="44" fill="#c67544"/><rect x="328.86" y="0" width="5.74" height="44" fill="#be663e"/></g>
<text x="28" y="840" font-size="10" fill="#8B7355">Jahresmittel 1881–2024 · jeder Streifen = ein Jahr</text></g>
<g transform="translate(16,868)"><text font-size="10" fill="#8B7355">Alles ist danach frei anpassbar. Kurz-Tour jederzeit überspringbar.</text></g>
<g transform="translate(150,1320)"><rect width="90" height="4" rx="2" fill="#2C2A26" opacity="0.4"/></g>
</svg>